<svg width="92" height="32" viewBox="0 0 92 32" fill="none" xmlns="http://www.w3.org/2000/svg">
<path d="M20.8163 29.9437H20.2534C20.2534 29.9377 20.2506 29.9318 20.2495 29.9261L20.2341 29.8573C20.2242 29.812 20.2135 29.7671 20.2025 29.7226C20.1978 29.7016 20.1926 29.6806 20.1875 29.6597C20.1729 29.6009 20.1575 29.5422 20.1417 29.4834L20.137 29.4666C20.1196 29.4029 20.1014 29.3396 20.0825 29.2765L20.0635 29.2155C20.0505 29.172 20.0367 29.129 20.0241 29.086C20.0166 29.0624 20.0087 29.0392 20.0012 29.016C19.9874 28.9744 19.9731 28.9329 19.9585 28.8917C19.951 28.87 19.9431 28.8479 19.9356 28.8266C19.9172 28.775 19.8983 28.7237 19.8788 28.6728C19.8745 28.6619 19.8709 28.6515 19.8666 28.6406C19.8437 28.5807 19.8196 28.5212 19.7951 28.4617C19.7864 28.44 19.7773 28.4187 19.7683 28.3974C19.7517 28.3599 19.7351 28.3188 19.7181 28.2798L19.6862 28.2076C19.6696 28.1702 19.6526 28.1328 19.6352 28.0953C19.6246 28.0721 19.6135 28.0486 19.6025 28.0254C19.5823 27.9823 19.563 27.9397 19.5405 27.8974C19.5322 27.8813 19.5247 27.8648 19.5164 27.8483C19.4884 27.7926 19.4596 27.7361 19.4304 27.6822L19.3909 27.6122L19.3352 27.5108L19.2918 27.4359C19.2736 27.4045 19.2555 27.373 19.2369 27.3416C19.2223 27.3162 19.2073 27.2907 19.1923 27.2668C19.1718 27.2327 19.1529 27.1994 19.1303 27.1657L19.0735 27.0744C19.0467 27.0325 19.0198 26.9902 18.9922 26.9487C18.9748 26.9225 18.9575 26.8966 18.9397 26.8708C18.9219 26.845 18.9026 26.8154 18.8836 26.7881C18.8647 26.7608 18.8442 26.7335 18.8268 26.7065C18.8094 26.6796 18.7905 26.6553 18.7719 26.6317C18.7534 26.6081 18.7324 26.5767 18.7123 26.5493L18.6567 26.4745C18.6172 26.4247 18.5809 26.3749 18.5422 26.3248L18.4881 26.2563C18.4652 26.2275 18.4415 26.199 18.4182 26.1706L18.3661 26.1077C18.342 26.0789 18.3176 26.0505 18.2931 26.0217L18.2418 25.9625L18.1652 25.8757L18.1198 25.8256C18.0254 25.7219 17.9287 25.6197 17.8297 25.5202L17.7862 25.4764L17.6954 25.3877L17.6508 25.345C17.6192 25.3147 17.5877 25.2848 17.5557 25.2552L17.5229 25.2253C17.4112 25.1224 17.2963 25.0221 17.1795 24.9259L17.1475 24.8993C17.1115 24.8694 17.0752 24.8398 17.0386 24.8106L17.0023 24.7814C16.9628 24.7515 16.9269 24.7219 16.8886 24.6923L16.8692 24.6777C16.7401 24.5789 16.6079 24.4828 16.4745 24.3903L16.4559 24.3772C16.4137 24.3484 16.3714 24.32 16.3288 24.2919L16.3008 24.2736C16.2574 24.2447 16.2135 24.2167 16.1697 24.1886L16.1622 24.1841C16.017 24.0921 15.8689 24.0039 15.7181 23.9195L15.7122 23.9158C15.6645 23.8892 15.6167 23.8634 15.5689 23.8376L15.548 23.8263C15.2938 23.6904 15.0327 23.5656 14.7648 23.4521L14.7482 23.445C14.6776 23.415 14.6065 23.3862 14.5347 23.3578H15.9475C16.1776 23.3578 16.3643 23.1067 16.3643 22.7964C16.3643 22.4862 16.1776 22.2351 15.9475 22.2351H15.5267C15.5527 22.1722 15.5816 22.1011 15.6127 22.021C16.0106 21.786 16.7109 21.2852 17.4057 20.3653L17.4112 20.3582C17.4639 20.2894 17.5156 20.2181 17.5664 20.1445L17.5766 20.1299C17.6271 20.0577 17.6777 19.9832 17.7274 19.9054L17.7408 19.8848C17.7645 19.8474 17.7882 19.81 17.8119 19.7725C17.8119 19.7725 17.8119 19.7695 17.8147 19.7677C17.8391 19.7302 17.8632 19.6891 17.8873 19.649L17.9027 19.6232C17.9232 19.5888 17.9441 19.5536 17.9643 19.5181C17.9682 19.5117 17.9722 19.5053 17.9757 19.4986C17.999 19.4582 18.0223 19.417 18.0452 19.3755L18.061 19.3466C18.0799 19.3122 18.0985 19.2774 18.117 19.2422C18.1226 19.2325 18.1281 19.2224 18.1332 19.2123C18.1553 19.17 18.1774 19.1273 18.1995 19.0839L18.2149 19.0536C18.2323 19.0184 18.2501 18.9825 18.2674 18.9466L18.2864 18.9092C18.3077 18.865 18.3286 18.8201 18.3495 18.7748L18.3626 18.746C18.3799 18.7086 18.3969 18.6711 18.4139 18.6337L18.434 18.5888C18.4537 18.5435 18.4735 18.4979 18.4924 18.4518C18.496 18.4436 18.4995 18.435 18.5027 18.4268C18.5205 18.3845 18.5378 18.3414 18.5552 18.298L18.5749 18.2486C18.5911 18.2074 18.6073 18.1659 18.6231 18.1244L18.6349 18.0929C18.6535 18.0435 18.6716 17.993 18.6898 17.9432L18.7088 17.8901C18.723 17.8504 18.7368 17.81 18.7506 17.7696C18.7557 17.7546 18.7609 17.7396 18.7656 17.7247C18.783 17.673 18.8003 17.6203 18.8173 17.5675C18.8228 17.5492 18.8288 17.5301 18.8343 17.5128L18.8738 17.3897C18.8789 17.3718 18.8844 17.3523 18.8896 17.3362C18.9057 17.2819 18.9219 17.2266 18.9373 17.1708C18.9424 17.1532 18.9472 17.1352 18.9519 17.1173C18.9638 17.0742 18.9756 17.0312 18.9871 16.9874C18.9922 16.9676 18.9973 16.9477 19.0028 16.9279C19.0175 16.8703 19.0321 16.8123 19.0463 16.7535L19.0581 16.7045C19.0692 16.6577 19.0802 16.6105 19.0909 16.563L19.1051 16.4994C19.1185 16.4384 19.1319 16.3774 19.1446 16.3153C19.1473 16.3033 19.1497 16.2909 19.1521 16.2778C19.1631 16.2243 19.1738 16.1701 19.184 16.1158C19.1884 16.0937 19.1923 16.0716 19.1967 16.0496C19.2069 15.9938 19.2168 15.9373 19.2267 15.8815C19.2286 15.8695 19.231 15.8579 19.233 15.8463C19.244 15.7805 19.2548 15.7141 19.2654 15.6472C19.2689 15.6248 19.2725 15.6023 19.2756 15.5795C19.2839 15.5252 19.2918 15.4706 19.2997 15.4152L19.3068 15.3643C19.3163 15.2955 19.3254 15.2262 19.334 15.1559C19.3368 15.1338 19.3392 15.1117 19.3419 15.0892C19.3488 15.0334 19.3551 14.9772 19.3609 14.9208C19.3633 14.9006 19.3656 14.8808 19.3676 14.8606C19.3752 14.7882 19.3823 14.7153 19.3889 14.6417C19.3889 14.6211 19.3925 14.6005 19.394 14.5795C19.3992 14.5204 19.4043 14.4609 19.4087 14.401C19.4087 14.3789 19.4122 14.3569 19.4138 14.3348C19.4193 14.2584 19.4244 14.1816 19.4292 14.1042C19.4292 14.0867 19.4292 14.0668 19.4319 14.0511C19.4355 13.9867 19.439 13.922 19.4418 13.8569C19.4418 13.8333 19.4418 13.8097 19.445 13.7861C19.4481 13.7057 19.4513 13.6248 19.4537 13.5429C19.4537 13.5316 19.4537 13.52 19.4537 13.5084C19.4558 13.4356 19.4573 13.362 19.4584 13.2876C19.4584 13.2633 19.4584 13.239 19.4584 13.2147C19.4584 13.1348 19.4584 13.0545 19.4584 12.9737V12.9549C19.4584 12.8689 19.4584 12.7817 19.4584 12.693V12.6181C19.4584 12.5433 19.4552 12.4647 19.4533 12.3868V12.3445C19.4505 12.2547 19.4469 12.1638 19.4434 12.0725C19.4434 12.0489 19.441 12.0249 19.4402 12.0014C19.4368 11.9245 19.4329 11.8472 19.4284 11.7693C19.4284 11.7502 19.4284 11.7319 19.4252 11.7113C19.4197 11.6178 19.4136 11.5235 19.4071 11.4284L19.4023 11.3622C19.3964 11.2828 19.3905 11.2031 19.3838 11.1226C19.3838 11.0994 19.3802 11.0762 19.3783 11.053C19.37 10.9557 19.3609 10.8573 19.3514 10.7585C19.3514 10.7398 19.3475 10.7211 19.3459 10.702C19.3376 10.6178 19.3285 10.5328 19.3194 10.4471C19.3167 10.4213 19.3139 10.3959 19.3108 10.37C19.2997 10.2682 19.2879 10.1661 19.2752 10.0624C19.2752 10.0497 19.2717 10.037 19.2701 10.025C19.2588 9.93217 19.2468 9.83886 19.2342 9.74505C19.2302 9.71736 19.2267 9.68966 19.2227 9.66197C19.208 9.55568 19.1929 9.44852 19.1773 9.34049C17.5983 -1.31572 6.40876 0.413656 6.40876 0.413656L6.76719 2.70328L0 9.48083L0.295667 12.0979L2.85917 13.5949C2.97345 13.3195 3.12017 13.0573 3.29655 12.8131C4.95055 11.0044 8.15947 9.5845 9.07805 9.28997C9.26201 9.23121 9.36662 9.20165 9.36662 9.20165C4.97266 14.593 5.47241 20.7695 5.66821 22.2418C5.46452 22.2792 5.30701 22.5124 5.30701 22.7968C5.30701 23.1067 5.49373 23.3582 5.72387 23.3582H7.13668C4.78699 24.2906 2.92185 26.0665 1.94848 28.2982C1.94734 28.3012 1.94602 28.3042 1.94454 28.3072C1.87269 28.4728 1.80585 28.6409 1.74401 28.8113C1.74411 28.813 1.74411 28.8148 1.74401 28.8165C1.72743 28.8629 1.71124 28.9093 1.69545 28.9561C1.68953 28.9729 1.68361 28.9898 1.67808 29.007C1.66387 29.0489 1.65071 29.0912 1.63861 29.1339C1.6315 29.1556 1.62479 29.1777 1.61808 29.1994C1.60545 29.2394 1.59321 29.2798 1.58137 29.3202L1.56005 29.3951C1.549 29.4325 1.53795 29.4726 1.52768 29.5115C1.52018 29.5392 1.51308 29.5665 1.50597 29.5942C1.4965 29.6316 1.48663 29.669 1.47755 29.7065C1.46847 29.7439 1.45978 29.7813 1.4511 29.821C1.44242 29.8606 1.43136 29.9071 1.42189 29.9505H0.85858C0.750258 29.9482 0.642551 29.9665 0.541778 30.0042C0.441006 30.0419 0.3492 30.0984 0.271747 30.1702C0.194294 30.242 0.13275 30.3278 0.0907365 30.4225C0.0487226 30.5172 0.0270812 30.6189 0.0270812 30.7216C0.0270812 30.8243 0.0487226 30.926 0.0907365 31.0207C0.13275 31.1154 0.194294 31.2011 0.271747 31.273C0.3492 31.3448 0.441006 31.4012 0.541778 31.439C0.642551 31.4767 0.750258 31.495 0.85858 31.4927H20.8234C20.9318 31.495 21.0395 31.4767 21.1402 31.439C21.241 31.4012 21.3328 31.3448 21.4103 31.273C21.4877 31.2011 21.5493 31.1154 21.5913 31.0207C21.6333 30.926 21.6549 30.8243 21.6549 30.7216C21.6549 30.6189 21.6333 30.5172 21.5913 30.4225C21.5493 30.3278 21.4877 30.242 21.4103 30.1702C21.3328 30.0984 21.241 30.0419 21.1402 30.0042C21.0395 29.9665 20.9318 29.9482 20.8234 29.9505L20.8163 29.9437Z" fill="#595653"/>
<path d="M44.203 29.9437H43.6401C43.6401 29.9377 43.6374 29.9318 43.6362 29.9261L43.6208 29.8573C43.6109 29.812 43.6003 29.7671 43.5892 29.7226C43.5845 29.7016 43.5793 29.6806 43.5742 29.6597C43.5596 29.6009 43.5442 29.5422 43.5284 29.4834L43.5237 29.4666C43.5063 29.4029 43.4882 29.3396 43.4692 29.2765L43.4503 29.2155C43.4372 29.172 43.4234 29.129 43.4108 29.086C43.4033 29.0624 43.3954 29.0392 43.3879 29.016C43.3741 28.9744 43.3599 28.9329 43.3453 28.8917C43.3378 28.87 43.3299 28.8479 43.3224 28.8266C43.3039 28.775 43.285 28.7237 43.2655 28.6728C43.2612 28.6619 43.2576 28.6515 43.2533 28.6406C43.2304 28.5807 43.2063 28.5212 43.1818 28.4617C43.1731 28.44 43.1641 28.4187 43.155 28.3974C43.1384 28.3599 43.1218 28.3188 43.1049 28.2798L43.0729 28.2076C43.0563 28.1702 43.0393 28.1328 43.022 28.0953C43.0113 28.0721 43.0002 28.0486 42.9892 28.0254C42.9691 27.9823 42.9497 27.9397 42.9272 27.8974C42.9189 27.8813 42.9114 27.8648 42.9031 27.8483C42.8751 27.7926 42.8463 27.7361 42.8171 27.6822L42.7776 27.6122L42.7219 27.5108L42.6785 27.4359C42.6604 27.4045 42.6422 27.373 42.6237 27.3416C42.609 27.3162 42.594 27.2907 42.579 27.2668C42.5585 27.2327 42.5396 27.1994 42.5171 27.1657L42.4602 27.0744C42.4334 27.0325 42.4065 26.9902 42.3789 26.9487C42.3615 26.9225 42.3442 26.8966 42.3264 26.8708C42.3086 26.845 42.2893 26.8154 42.2704 26.7881C42.2514 26.7608 42.2309 26.7335 42.2135 26.7065C42.1961 26.6796 42.1772 26.6553 42.1586 26.6317C42.1401 26.6081 42.1192 26.5767 42.099 26.5493L42.0434 26.4745C42.0039 26.4247 41.9676 26.3749 41.9289 26.3248L41.8748 26.2563C41.8519 26.2275 41.8282 26.199 41.8049 26.1706L41.7528 26.1077C41.7288 26.0789 41.7043 26.0505 41.6798 26.0217L41.6285 25.9625L41.5519 25.8757L41.5065 25.8256C41.4122 25.7219 41.3155 25.6197 41.2164 25.5202L41.1729 25.4764L41.0822 25.3877L41.0375 25.345C41.006 25.3147 40.9744 25.2848 40.9424 25.2552L40.9096 25.2253C40.7979 25.1224 40.6831 25.0221 40.5662 24.9259L40.5342 24.8993C40.4982 24.8694 40.4619 24.8398 40.4253 24.8106L40.389 24.7814C40.3495 24.7515 40.3136 24.7219 40.2753 24.6923L40.2559 24.6777C40.1269 24.5789 39.9946 24.4828 39.8612 24.3903L39.8426 24.3772C39.8004 24.3484 39.7582 24.32 39.7155 24.2919L39.6875 24.2736C39.6441 24.2447 39.6003 24.2167 39.5564 24.1886L39.5489 24.1841C39.4037 24.0921 39.2557 24.0039 39.1049 23.9195L39.0989 23.9158C39.0512 23.8892 39.0034 23.8634 38.9556 23.8376L38.9347 23.8263C38.6805 23.6904 38.4194 23.5656 38.1515 23.4521L38.135 23.445C38.0643 23.415 37.9932 23.3862 37.9214 23.3578H39.3342C39.5643 23.3578 39.7511 23.1067 39.7511 22.7964C39.7511 22.4862 39.5643 22.2351 39.3342 22.2351H38.9134C38.9395 22.1722 38.9683 22.1011 38.9995 22.021C39.3974 21.786 40.0977 21.2852 40.7924 20.3653L40.7979 20.3582C40.8506 20.2894 40.9023 20.2181 40.9531 20.1445L40.9633 20.1299C41.0139 20.0577 41.0644 19.9832 41.1141 19.9054L41.1276 19.8848C41.1512 19.8474 41.1749 19.81 41.1986 19.7725C41.1986 19.7725 41.1986 19.7695 41.2014 19.7677C41.2258 19.7302 41.2499 19.6891 41.274 19.649L41.2894 19.6232C41.3099 19.5888 41.3308 19.5536 41.351 19.5181C41.3549 19.5117 41.3589 19.5053 41.3624 19.4986C41.3857 19.4582 41.409 19.417 41.4319 19.3755L41.4477 19.3466C41.4666 19.3122 41.4852 19.2774 41.5037 19.2422C41.5093 19.2325 41.5148 19.2224 41.5199 19.2123C41.542 19.17 41.5641 19.1273 41.5863 19.0839L41.6016 19.0536C41.619 19.0184 41.6368 18.9825 41.6541 18.9466L41.6731 18.9092C41.6944 18.865 41.7153 18.8201 41.7363 18.7748L41.7493 18.746C41.7667 18.7086 41.7836 18.6711 41.8006 18.6337L41.8207 18.5888C41.8405 18.5435 41.8602 18.4979 41.8792 18.4518C41.8827 18.4436 41.8863 18.435 41.8894 18.4268C41.9072 18.3845 41.9246 18.3414 41.9419 18.298L41.9617 18.2486C41.9778 18.2074 41.994 18.1659 42.0098 18.1244L42.0217 18.0929C42.0402 18.0435 42.0584 17.993 42.0765 17.9432L42.0955 17.8901C42.1097 17.8504 42.1235 17.81 42.1373 17.7696C42.1425 17.7546 42.1476 17.7396 42.1523 17.7247C42.1697 17.673 42.1871 17.6203 42.204 17.5675C42.2096 17.5492 42.2155 17.5301 42.221 17.5128L42.2605 17.3897C42.2656 17.3718 42.2711 17.3523 42.2763 17.3362C42.2925 17.2819 42.3086 17.2266 42.324 17.1708C42.3292 17.1532 42.3339 17.1352 42.3386 17.1173C42.3505 17.0742 42.3623 17.0312 42.3738 16.9874C42.3789 16.9676 42.384 16.9477 42.3896 16.9279C42.4042 16.8703 42.4188 16.8123 42.433 16.7535L42.4448 16.7045C42.4559 16.6577 42.4669 16.6105 42.4776 16.563L42.4918 16.4994C42.5052 16.4384 42.5186 16.3774 42.5313 16.3153C42.534 16.3033 42.5364 16.2909 42.5388 16.2778C42.5498 16.2243 42.5605 16.1701 42.5708 16.1158C42.5751 16.0937 42.579 16.0716 42.5834 16.0496C42.5937 15.9938 42.6035 15.9373 42.6134 15.8815C42.6154 15.8695 42.6177 15.8579 42.6197 15.8463C42.6308 15.7805 42.6415 15.7141 42.6521 15.6472C42.6556 15.6248 42.6592 15.6023 42.6623 15.5795C42.6706 15.5252 42.6785 15.4706 42.6864 15.4152L42.6935 15.3643C42.703 15.2955 42.7121 15.2262 42.7208 15.1559C42.7235 15.1338 42.7259 15.1117 42.7287 15.0892C42.7355 15.0334 42.7418 14.9772 42.7476 14.9208C42.75 14.9006 42.7523 14.8808 42.7543 14.8606C42.7619 14.7882 42.7691 14.7153 42.7756 14.6417C42.7756 14.6211 42.7792 14.6005 42.7808 14.5795C42.7859 14.5204 42.791 14.4609 42.7954 14.401C42.7954 14.3789 42.7989 14.3569 42.8005 14.3348C42.806 14.2584 42.8112 14.1816 42.8159 14.1042C42.8159 14.0867 42.8159 14.0668 42.8187 14.0511C42.8222 13.9867 42.8258 13.922 42.8285 13.8569C42.8285 13.8333 42.8285 13.8097 42.8317 13.7861C42.8348 13.7057 42.838 13.6248 42.8404 13.5429C42.8404 13.5316 42.8404 13.52 42.8404 13.5084C42.8425 13.4356 42.8441 13.362 42.8451 13.2876C42.8451 13.2633 42.8451 13.239 42.8451 13.2147C42.8451 13.1348 42.8451 13.0545 42.8451 12.9737V12.9549C42.8451 12.8689 42.8451 12.7817 42.8451 12.693V12.6181C42.8451 12.5433 42.8419 12.4647 42.84 12.3868V12.3445C42.8372 12.2547 42.8337 12.1638 42.8301 12.0725C42.8301 12.0489 42.8277 12.0249 42.8269 12.0014C42.8235 11.9245 42.8196 11.8472 42.8151 11.7693C42.8151 11.7502 42.8151 11.7319 42.8119 11.7113C42.8064 11.6178 42.8004 11.5235 42.7938 11.4284L42.7891 11.3622C42.7831 11.2828 42.7772 11.2031 42.7705 11.1226C42.7705 11.0994 42.7669 11.0762 42.765 11.053C42.7567 10.9557 42.7476 10.8573 42.7381 10.7585C42.7381 10.7398 42.7342 10.7211 42.7326 10.702C42.7243 10.6178 42.7152 10.5328 42.7062 10.4471C42.7034 10.4213 42.7006 10.3959 42.6975 10.37C42.6864 10.2682 42.6746 10.1661 42.6619 10.0624C42.6619 10.0497 42.6584 10.037 42.6568 10.025C42.6455 9.93217 42.6335 9.83886 42.6209 9.74505C42.6169 9.71736 42.6134 9.68966 42.6094 9.66197C42.5947 9.55568 42.5796 9.44852 42.564 9.34049C40.985 -1.31572 29.7955 0.413656 29.7955 0.413656L30.1539 2.70328L23.3867 9.48083L23.6824 12.0979L26.2459 13.5949C26.3602 13.3195 26.5069 13.0573 26.6833 12.8131C28.3373 11.0044 31.5462 9.5845 32.4648 9.28997C32.6487 9.23121 32.7533 9.20165 32.7533 9.20165C28.3594 14.593 28.8591 20.7695 29.0549 22.2418C28.8512 22.2792 28.6937 22.5124 28.6937 22.7968C28.6937 23.1067 28.8804 23.3582 29.1106 23.3582H30.5234C28.1737 24.2906 26.3086 26.0665 25.3352 28.2982C25.3341 28.3012 25.3327 28.3042 25.3313 28.3072C25.2594 28.4728 25.1926 28.6409 25.1307 28.8113C25.1308 28.813 25.1308 28.8148 25.1307 28.8165C25.1141 28.8629 25.098 28.9093 25.0822 28.9561C25.0762 28.9729 25.0703 28.9898 25.0648 29.007C25.0506 29.0489 25.0374 29.0912 25.0253 29.1339C25.0182 29.1556 25.0115 29.1777 25.0048 29.1994C24.9922 29.2394 24.9799 29.2798 24.9681 29.3202L24.9468 29.3951C24.9357 29.4325 24.9247 29.4726 24.9144 29.5115C24.9069 29.5392 24.8998 29.5665 24.8927 29.5942C24.8832 29.6316 24.8733 29.669 24.8643 29.7065C24.8552 29.7439 24.8465 29.7813 24.8378 29.821C24.8291 29.8606 24.8181 29.9071 24.8086 29.9505H24.2453C24.137 29.9482 24.0293 29.9665 23.9285 30.0042C23.8277 30.0419 23.7359 30.0984 23.6585 30.1702C23.581 30.242 23.5195 30.3278 23.4775 30.4225C23.4354 30.5172 23.4138 30.6189 23.4138 30.7216C23.4138 30.8243 23.4354 30.926 23.4775 31.0207C23.5195 31.1154 23.581 31.2011 23.6585 31.273C23.7359 31.3448 23.8277 31.4012 23.9285 31.439C24.0293 31.4767 24.137 31.495 24.2453 31.4927H44.2101C44.3185 31.495 44.4262 31.4767 44.527 31.439C44.6277 31.4012 44.7195 31.3448 44.797 31.273C44.8744 31.2011 44.936 31.1154 44.978 31.0207C45.02 30.926 45.0416 30.8243 45.0416 30.7216C45.0416 30.6189 45.02 30.5172 44.978 30.4225C44.936 30.3278 44.8744 30.242 44.797 30.1702C44.7195 30.0984 44.6277 30.0419 44.527 30.0042C44.4262 29.9665 44.3185 29.9482 44.2101 29.9505L44.203 29.9437Z" fill="#595653"/>
<path d="M67.5907 29.9437H67.0278C67.0278 29.9377 67.0251 29.9318 67.0239 29.9261L67.0085 29.8573C66.9986 29.812 66.988 29.7671 66.9769 29.7226C66.9722 29.7016 66.967 29.6806 66.9619 29.6597C66.9473 29.6009 66.9319 29.5422 66.9161 29.4834L66.9114 29.4666C66.894 29.4029 66.8758 29.3396 66.8569 29.2765L66.838 29.2155C66.8249 29.172 66.8111 29.129 66.7985 29.086C66.791 29.0624 66.7831 29.0392 66.7756 29.016C66.7618 28.9744 66.7476 28.9329 66.7329 28.8917C66.7254 28.87 66.7176 28.8479 66.7101 28.8266C66.6916 28.775 66.6727 28.7237 66.6532 28.6728C66.6489 28.6619 66.6453 28.6515 66.641 28.6406C66.6181 28.5807 66.594 28.5212 66.5695 28.4617C66.5608 28.44 66.5518 28.4187 66.5427 28.3974C66.5261 28.3599 66.5095 28.3188 66.4925 28.2798L66.4606 28.2076C66.444 28.1702 66.427 28.1328 66.4096 28.0953C66.399 28.0721 66.3879 28.0486 66.3769 28.0254C66.3568 27.9823 66.3374 27.9397 66.3149 27.8974C66.3066 27.8813 66.2991 27.8648 66.2908 27.8483C66.2628 27.7926 66.234 27.7361 66.2048 27.6822L66.1653 27.6122L66.1096 27.5108L66.0662 27.4359C66.0481 27.4045 66.0299 27.373 66.0113 27.3416C65.9967 27.3162 65.9817 27.2907 65.9667 27.2668C65.9462 27.2327 65.9273 27.1994 65.9048 27.1657L65.8479 27.0744C65.8211 27.0325 65.7942 26.9902 65.7666 26.9487C65.7492 26.9225 65.7319 26.8966 65.7141 26.8708C65.6963 26.845 65.677 26.8154 65.658 26.7881C65.6391 26.7608 65.6186 26.7335 65.6012 26.7065C65.5838 26.6796 65.5649 26.6553 65.5463 26.6317C65.5278 26.6081 65.5069 26.5767 65.4867 26.5493L65.4311 26.4745C65.3916 26.4247 65.3553 26.3749 65.3166 26.3248L65.2625 26.2563C65.2396 26.2275 65.2159 26.199 65.1926 26.1706L65.1405 26.1077C65.1164 26.0789 65.092 26.0505 65.0675 26.0217L65.0162 25.9625L64.9396 25.8757L64.8942 25.8256C64.7999 25.7219 64.7031 25.6197 64.6041 25.5202L64.5606 25.4764L64.4699 25.3877L64.4252 25.345C64.3937 25.3147 64.3621 25.2848 64.3301 25.2552L64.2973 25.2253C64.1856 25.1224 64.0708 25.0221 63.9539 24.9259L63.9219 24.8993C63.8859 24.8694 63.8496 24.8398 63.813 24.8106L63.7767 24.7814C63.7372 24.7515 63.7013 24.7219 63.663 24.6923L63.6436 24.6777C63.5146 24.5789 63.3823 24.4828 63.2489 24.3903L63.2303 24.3772C63.1881 24.3484 63.1459 24.32 63.1032 24.2919L63.0752 24.2736C63.0318 24.2447 62.988 24.2167 62.9441 24.1886L62.9366 24.1841C62.7914 24.0921 62.6433 24.0039 62.4926 23.9195L62.4866 23.9158C62.4389 23.8892 62.3911 23.8634 62.3433 23.8376L62.3224 23.8263C62.0682 23.6904 61.8071 23.5656 61.5392 23.4521L61.5226 23.445C61.452 23.415 61.3809 23.3862 61.3091 23.3578H62.7219C62.952 23.3578 63.1388 23.1067 63.1388 22.7964C63.1388 22.4862 62.952 22.2351 62.7219 22.2351H62.3011C62.3271 22.1722 62.356 22.1011 62.3872 22.021C62.7851 21.786 63.4853 21.2852 64.1801 20.3653L64.1856 20.3582C64.2383 20.2894 64.29 20.2181 64.3408 20.1445L64.351 20.1299C64.4016 20.0577 64.4521 19.9832 64.5018 19.9054L64.5152 19.8848C64.5389 19.8474 64.5626 19.81 64.5863 19.7725C64.5863 19.7725 64.5863 19.7695 64.5891 19.7677C64.6135 19.7302 64.6376 19.6891 64.6617 19.649L64.6771 19.6232C64.6976 19.5888 64.7185 19.5536 64.7387 19.5181C64.7426 19.5117 64.7466 19.5053 64.7501 19.4986C64.7734 19.4582 64.7967 19.417 64.8196 19.3755L64.8354 19.3466C64.8543 19.3122 64.8729 19.2774 64.8914 19.2422C64.897 19.2325 64.9025 19.2224 64.9076 19.2123C64.9297 19.17 64.9518 19.1273 64.9739 19.0839L64.9893 19.0536C65.0067 19.0184 65.0245 18.9825 65.0418 18.9466L65.0608 18.9092C65.0821 18.865 65.103 18.8201 65.1239 18.7748L65.137 18.746C65.1543 18.7086 65.1713 18.6711 65.1883 18.6337L65.2084 18.5888C65.2282 18.5435 65.2479 18.4979 65.2668 18.4518C65.2704 18.4436 65.274 18.435 65.2771 18.4268C65.2949 18.3845 65.3122 18.3414 65.3296 18.298L65.3494 18.2486C65.3655 18.2074 65.3817 18.1659 65.3975 18.1244L65.4094 18.0929C65.4279 18.0435 65.4461 17.993 65.4642 17.9432L65.4832 17.8901C65.4974 17.8504 65.5112 17.81 65.525 17.7696C65.5301 17.7546 65.5353 17.7396 65.54 17.7247C65.5574 17.673 65.5748 17.6203 65.5917 17.5675C65.5973 17.5492 65.6032 17.5301 65.6087 17.5128L65.6482 17.3897C65.6533 17.3718 65.6588 17.3523 65.664 17.3362C65.6802 17.2819 65.6963 17.2266 65.7117 17.1708C65.7169 17.1532 65.7216 17.1352 65.7263 17.1173C65.7382 17.0742 65.75 17.0312 65.7615 16.9874C65.7666 16.9676 65.7717 16.9477 65.7773 16.9279C65.7919 16.8703 65.8065 16.8123 65.8207 16.7535L65.8325 16.7045C65.8436 16.6577 65.8546 16.6105 65.8653 16.563L65.8795 16.4994C65.8929 16.4384 65.9063 16.3774 65.919 16.3153C65.9217 16.3033 65.9241 16.2909 65.9265 16.2778C65.9375 16.2243 65.9482 16.1701 65.9584 16.1158C65.9628 16.0937 65.9667 16.0716 65.9711 16.0496C65.9813 15.9938 65.9912 15.9373 66.0011 15.8815C66.0031 15.8695 66.0054 15.8579 66.0074 15.8463C66.0185 15.7805 66.0292 15.7141 66.0398 15.6472C66.0433 15.6248 66.0469 15.6023 66.05 15.5795C66.0583 15.5252 66.0662 15.4706 66.0741 15.4152L66.0812 15.3643C66.0907 15.2955 66.0998 15.2262 66.1085 15.1559C66.1112 15.1338 66.1136 15.1117 66.1163 15.0892C66.1232 15.0334 66.1295 14.9772 66.1353 14.9208C66.1377 14.9006 66.14 14.8808 66.142 14.8606C66.1496 14.7882 66.1567 14.7153 66.1633 14.6417C66.1633 14.6211 66.1669 14.6005 66.1685 14.5795C66.1736 14.5204 66.1787 14.4609 66.1831 14.401C66.1831 14.3789 66.1866 14.3569 66.1882 14.3348C66.1937 14.2584 66.1989 14.1816 66.2036 14.1042C66.2036 14.0867 66.2036 14.0668 66.2064 14.0511C66.2099 13.9867 66.2135 13.922 66.2162 13.8569C66.2162 13.8333 66.2162 13.8097 66.2194 13.7861C66.2225 13.7057 66.2257 13.6248 66.2281 13.5429C66.2281 13.5316 66.2281 13.52 66.2281 13.5084C66.2302 13.4356 66.2318 13.362 66.2328 13.2876C66.2328 13.2633 66.2328 13.239 66.2328 13.2147C66.2328 13.1348 66.2328 13.0545 66.2328 12.9737V12.9549C66.2328 12.8689 66.2328 12.7817 66.2328 12.693V12.6181C66.2328 12.5433 66.2296 12.4647 66.2277 12.3868V12.3445C66.2249 12.2547 66.2214 12.1638 66.2178 12.0725C66.2178 12.0489 66.2154 12.0249 66.2146 12.0014C66.2112 11.9245 66.2073 11.8472 66.2028 11.7693C66.2028 11.7502 66.2028 11.7319 66.1996 11.7113C66.1941 11.6178 66.1881 11.5235 66.1815 11.4284L66.1767 11.3622C66.1708 11.2828 66.1649 11.2031 66.1582 11.1226C66.1582 11.0994 66.1546 11.0762 66.1527 11.053C66.1444 10.9557 66.1353 10.8573 66.1258 10.7585C66.1258 10.7398 66.1219 10.7211 66.1203 10.702C66.112 10.6178 66.1029 10.5328 66.0939 10.4471C66.0911 10.4213 66.0883 10.3959 66.0852 10.37C66.0741 10.2682 66.0623 10.1661 66.0496 10.0624C66.0496 10.0497 66.0461 10.037 66.0445 10.025C66.0332 9.93217 66.0212 9.83886 66.0086 9.74505C66.0046 9.71736 66.0011 9.68966 65.9971 9.66197C65.9824 9.55568 65.9673 9.44852 65.9517 9.34049C64.3727 -1.31572 53.1832 0.413656 53.1832 0.413656L53.5416 2.70328L46.7744 9.48083L47.0701 12.0979L49.6336 13.5949C49.7479 13.3195 49.8946 13.0573 50.071 12.8131C51.725 11.0044 54.9339 9.5845 55.8525 9.28997C56.0364 9.23121 56.141 9.20165 56.141 9.20165C51.7471 14.593 52.2468 20.7695 52.4426 22.2418C52.2389 22.2792 52.0814 22.5124 52.0814 22.7968C52.0814 23.1067 52.2681 23.3582 52.4983 23.3582H53.9111C51.5614 24.2906 49.6963 26.0665 48.7229 28.2982C48.7218 28.3012 48.7204 28.3042 48.719 28.3072C48.6471 28.4728 48.5803 28.6409 48.5184 28.8113C48.5185 28.813 48.5185 28.8148 48.5184 28.8165C48.5018 28.8629 48.4857 28.9093 48.4699 28.9561C48.4639 28.9729 48.458 28.9898 48.4525 29.007C48.4383 29.0489 48.4251 29.0912 48.413 29.1339C48.4059 29.1556 48.3992 29.1777 48.3925 29.1994C48.3799 29.2394 48.3676 29.2798 48.3558 29.3202L48.3345 29.3951C48.3234 29.4325 48.3124 29.4726 48.3021 29.5115C48.2946 29.5392 48.2875 29.5665 48.2804 29.5942C48.2709 29.6316 48.261 29.669 48.252 29.7065C48.2429 29.7439 48.2342 29.7813 48.2255 29.821C48.2168 29.8606 48.2058 29.9071 48.1963 29.9505H47.633C47.5247 29.9482 47.417 29.9665 47.3162 30.0042C47.2154 30.0419 47.1236 30.0984 47.0462 30.1702C46.9687 30.242 46.9072 30.3278 46.8652 30.4225C46.8231 30.5172 46.8015 30.6189 46.8015 30.7216C46.8015 30.8243 46.8231 30.926 46.8652 31.0207C46.9072 31.1154 46.9687 31.2011 47.0462 31.273C47.1236 31.3448 47.2154 31.4012 47.3162 31.439C47.417 31.4767 47.5247 31.495 47.633 31.4927H67.5978C67.7062 31.495 67.8139 31.4767 67.9146 31.439C68.0154 31.4012 68.1072 31.3448 68.1847 31.273C68.2621 31.2011 68.3237 31.1154 68.3657 31.0207C68.4077 30.926 68.4293 30.8243 68.4293 30.7216C68.4293 30.6189 68.4077 30.5172 68.3657 30.4225C68.3237 30.3278 68.2621 30.242 68.1847 30.1702C68.1072 30.0984 68.0154 30.0419 67.9146 30.0042C67.8139 29.9665 67.7062 29.9482 67.5978 29.9505L67.5907 29.9437Z" fill="#595653"/>
<path d="M90.9784 29.9437H90.4155C90.4155 29.9377 90.4128 29.9318 90.4116 29.9261L90.3962 29.8573C90.3863 29.812 90.3757 29.7671 90.3646 29.7226C90.3599 29.7016 90.3547 29.6806 90.3496 29.6597C90.335 29.6009 90.3196 29.5422 90.3038 29.4834L90.2991 29.4666C90.2817 29.4029 90.2635 29.3396 90.2446 29.2765L90.2256 29.2155C90.2126 29.172 90.1988 29.129 90.1862 29.086C90.1787 29.0624 90.1708 29.0392 90.1633 29.016C90.1495 28.9744 90.1352 28.9329 90.1206 28.8917C90.1131 28.87 90.1052 28.8479 90.0977 28.8266C90.0793 28.775 90.0604 28.7237 90.0409 28.6728C90.0366 28.6619 90.033 28.6515 90.0287 28.6406C90.0058 28.5807 89.9817 28.5212 89.9572 28.4617C89.9485 28.44 89.9395 28.4187 89.9304 28.3974C89.9138 28.3599 89.8972 28.3188 89.8802 28.2798L89.8483 28.2076C89.8317 28.1702 89.8147 28.1328 89.7973 28.0953C89.7867 28.0721 89.7756 28.0486 89.7646 28.0254C89.7444 27.9823 89.7251 27.9397 89.7026 27.8974C89.6943 27.8813 89.6868 27.8648 89.6785 27.8483C89.6505 27.7926 89.6217 27.7361 89.5925 27.6822L89.553 27.6122L89.4973 27.5108L89.4539 27.4359C89.4358 27.4045 89.4176 27.373 89.399 27.3416C89.3844 27.3162 89.3694 27.2907 89.3544 27.2668C89.3339 27.2327 89.315 27.1994 89.2925 27.1657L89.2356 27.0744C89.2088 27.0325 89.1819 26.9902 89.1543 26.9487C89.1369 26.9225 89.1196 26.8966 89.1018 26.8708C89.084 26.845 89.0647 26.8154 89.0457 26.7881C89.0268 26.7608 89.0063 26.7335 88.9889 26.7065C88.9715 26.6796 88.9526 26.6553 88.934 26.6317C88.9155 26.6081 88.8946 26.5767 88.8744 26.5493L88.8188 26.4745C88.7793 26.4247 88.743 26.3749 88.7043 26.3248L88.6502 26.2563C88.6273 26.2275 88.6036 26.199 88.5803 26.1706L88.5282 26.1077C88.5041 26.0789 88.4797 26.0505 88.4552 26.0217L88.4039 25.9625L88.3273 25.8757L88.2819 25.8256C88.1876 25.7219 88.0908 25.6197 87.9918 25.5202L87.9483 25.4764L87.8575 25.3877L87.8129 25.345C87.7814 25.3147 87.7498 25.2848 87.7178 25.2552L87.685 25.2253C87.5733 25.1224 87.4585 25.0221 87.3416 24.9259L87.3096 24.8993C87.2736 24.8694 87.2373 24.8398 87.2007 24.8106L87.1644 24.7814C87.1249 24.7515 87.089 24.7219 87.0507 24.6923L87.0313 24.6777C86.9022 24.5789 86.77 24.4828 86.6366 24.3903L86.618 24.3772C86.5758 24.3484 86.5336 24.32 86.4909 24.2919L86.4629 24.2736C86.4195 24.2447 86.3757 24.2167 86.3318 24.1886L86.3243 24.1841C86.1791 24.0921 86.031 24.0039 85.8802 23.9195L85.8743 23.9158C85.8266 23.8892 85.7788 23.8634 85.731 23.8376L85.7101 23.8263C85.4559 23.6904 85.1948 23.5656 84.9269 23.4521L84.9103 23.445C84.8397 23.415 84.7686 23.3862 84.6968 23.3578H86.1096C86.3397 23.3578 86.5265 23.1067 86.5265 22.7964C86.5265 22.4862 86.3397 22.2351 86.1096 22.2351H85.6888C85.7148 22.1722 85.7437 22.1011 85.7748 22.021C86.1728 21.786 86.873 21.2852 87.5678 20.3653L87.5733 20.3582C87.626 20.2894 87.6777 20.2181 87.7285 20.1445L87.7387 20.1299C87.7893 20.0577 87.8398 19.9832 87.8895 19.9054L87.9029 19.8848C87.9266 19.8474 87.9503 19.81 87.974 19.7725C87.974 19.7725 87.974 19.7695 87.9768 19.7677C88.0012 19.7302 88.0253 19.6891 88.0494 19.649L88.0648 19.6232C88.0853 19.5888 88.1062 19.5536 88.1264 19.5181C88.1303 19.5117 88.1343 19.5053 88.1378 19.4986C88.1611 19.4582 88.1844 19.417 88.2073 19.3755L88.2231 19.3466C88.242 19.3122 88.2606 19.2774 88.2791 19.2422C88.2847 19.2325 88.2902 19.2224 88.2953 19.2123C88.3174 19.17 88.3395 19.1273 88.3616 19.0839L88.377 19.0536C88.3944 19.0184 88.4122 18.9825 88.4295 18.9466L88.4485 18.9092C88.4698 18.865 88.4907 18.8201 88.5116 18.7748L88.5247 18.746C88.542 18.7086 88.559 18.6711 88.576 18.6337L88.5961 18.5888C88.6159 18.5435 88.6356 18.4979 88.6545 18.4518C88.6581 18.4436 88.6616 18.435 88.6648 18.4268C88.6826 18.3845 88.6999 18.3414 88.7173 18.298L88.737 18.2486C88.7532 18.2074 88.7694 18.1659 88.7852 18.1244L88.7971 18.0929C88.8156 18.0435 88.8338 17.993 88.8519 17.9432L88.8709 17.8901C88.8851 17.8504 88.8989 17.81 88.9127 17.7696C88.9178 17.7546 88.923 17.7396 88.9277 17.7247C88.9451 17.673 88.9625 17.6203 88.9794 17.5675C88.985 17.5492 88.9909 17.5301 88.9964 17.5128L89.0359 17.3897C89.041 17.3718 89.0465 17.3523 89.0517 17.3362C89.0678 17.2819 89.084 17.2266 89.0994 17.1708C89.1046 17.1532 89.1093 17.1352 89.114 17.1173C89.1259 17.0742 89.1377 17.0312 89.1492 16.9874C89.1543 16.9676 89.1594 16.9477 89.165 16.9279C89.1796 16.8703 89.1942 16.8123 89.2084 16.7535L89.2202 16.7045C89.2313 16.6577 89.2423 16.6105 89.253 16.563L89.2672 16.4994C89.2806 16.4384 89.294 16.3774 89.3067 16.3153C89.3094 16.3033 89.3118 16.2909 89.3142 16.2778C89.3252 16.2243 89.3359 16.1701 89.3461 16.1158C89.3505 16.0937 89.3544 16.0716 89.3588 16.0496C89.369 15.9938 89.3789 15.9373 89.3888 15.8815C89.3908 15.8695 89.3931 15.8579 89.3951 15.8463C89.4061 15.7805 89.4169 15.7141 89.4275 15.6472C89.431 15.6248 89.4346 15.6023 89.4377 15.5795C89.446 15.5252 89.4539 15.4706 89.4618 15.4152L89.4689 15.3643C89.4784 15.2955 89.4875 15.2262 89.4962 15.1559C89.4989 15.1338 89.5013 15.1117 89.504 15.0892C89.5109 15.0334 89.5172 14.9772 89.523 14.9208C89.5254 14.9006 89.5277 14.8808 89.5297 14.8606C89.5373 14.7882 89.5444 14.7153 89.551 14.6417C89.551 14.6211 89.5546 14.6005 89.5562 14.5795C89.5613 14.5204 89.5664 14.4609 89.5708 14.401C89.5708 14.3789 89.5743 14.3569 89.5759 14.3348C89.5814 14.2584 89.5866 14.1816 89.5913 14.1042C89.5913 14.0867 89.5913 14.0668 89.594 14.0511C89.5976 13.9867 89.6012 13.922 89.6039 13.8569C89.6039 13.8333 89.6039 13.8097 89.6071 13.7861C89.6102 13.7057 89.6134 13.6248 89.6158 13.5429C89.6158 13.5316 89.6158 13.52 89.6158 13.5084C89.6179 13.4356 89.6194 13.362 89.6205 13.2876C89.6205 13.2633 89.6205 13.239 89.6205 13.2147C89.6205 13.1348 89.6205 13.0545 89.6205 12.9737V12.9549C89.6205 12.8689 89.6205 12.7817 89.6205 12.693V12.6181C89.6205 12.5433 89.6173 12.4647 89.6154 12.3868V12.3445C89.6126 12.2547 89.6091 12.1638 89.6055 12.0725C89.6055 12.0489 89.6031 12.0249 89.6023 12.0014C89.5989 11.9245 89.595 11.8472 89.5905 11.7693C89.5905 11.7502 89.5905 11.7319 89.5873 11.7113C89.5818 11.6178 89.5758 11.5235 89.5692 11.4284L89.5644 11.3622C89.5585 11.2828 89.5526 11.2031 89.5459 11.1226C89.5459 11.0994 89.5423 11.0762 89.5404 11.053C89.5321 10.9557 89.523 10.8573 89.5135 10.7585C89.5135 10.7398 89.5096 10.7211 89.508 10.702C89.4997 10.6178 89.4906 10.5328 89.4815 10.4471C89.4788 10.4213 89.476 10.3959 89.4729 10.37C89.4618 10.2682 89.45 10.1661 89.4373 10.0624C89.4373 10.0497 89.4338 10.037 89.4322 10.025C89.4209 9.93217 89.4089 9.83886 89.3963 9.74505C89.3923 9.71736 89.3888 9.68966 89.3848 9.66197C89.3701 9.55568 89.355 9.44852 89.3394 9.34049C87.7604 -1.31572 76.5709 0.413656 76.5709 0.413656L76.9293 2.70328L70.1621 9.48083L70.4578 12.0979L73.0213 13.5949C73.1356 13.3195 73.2823 13.0573 73.4587 12.8131C75.1127 11.0044 78.3216 9.5845 79.2402 9.28997C79.4241 9.23121 79.5287 9.20165 79.5287 9.20165C75.1348 14.593 75.6345 20.7695 75.8303 22.2418C75.6266 22.2792 75.4691 22.5124 75.4691 22.7968C75.4691 23.1067 75.6558 23.3582 75.886 23.3582H77.2988C74.9491 24.2906 73.084 26.0665 72.1106 28.2982C72.1094 28.3012 72.1081 28.3042 72.1066 28.3072C72.0348 28.4728 71.968 28.6409 71.9061 28.8113C71.9062 28.813 71.9062 28.8148 71.9061 28.8165C71.8895 28.8629 71.8734 28.9093 71.8576 28.9561C71.8516 28.9729 71.8457 28.9898 71.8402 29.007C71.826 29.0489 71.8128 29.0912 71.8007 29.1339C71.7936 29.1556 71.7869 29.1777 71.7802 29.1994C71.7676 29.2394 71.7553 29.2798 71.7435 29.3202L71.7222 29.3951C71.7111 29.4325 71.7001 29.4726 71.6898 29.5115C71.6823 29.5392 71.6752 29.5665 71.6681 29.5942C71.6586 29.6316 71.6487 29.669 71.6397 29.7065C71.6306 29.7439 71.6219 29.7813 71.6132 29.821C71.6045 29.8606 71.5935 29.9071 71.584 29.9505H71.0207C70.9124 29.9482 70.8047 29.9665 70.7039 30.0042C70.6031 30.0419 70.5113 30.0984 70.4339 30.1702C70.3564 30.242 70.2949 30.3278 70.2528 30.4225C70.2108 30.5172 70.1892 30.6189 70.1892 30.7216C70.1892 30.8243 70.2108 30.926 70.2528 31.0207C70.2949 31.1154 70.3564 31.2011 70.4339 31.273C70.5113 31.3448 70.6031 31.4012 70.7039 31.439C70.8047 31.4767 70.9124 31.495 71.0207 31.4927H90.9855C91.0939 31.495 91.2016 31.4767 91.3023 31.439C91.4031 31.4012 91.4949 31.3448 91.5724 31.273C91.6498 31.2011 91.7114 31.1154 91.7534 31.0207C91.7954 30.926 91.817 30.8243 91.817 30.7216C91.817 30.6189 91.7954 30.5172 91.7534 30.4225C91.7114 30.3278 91.6498 30.242 91.5724 30.1702C91.4949 30.0984 91.4031 30.0419 91.3023 30.0042C91.2016 29.9665 91.0939 29.9482 90.9855 29.9505L90.9784 29.9437Z" fill="#595653"/>
</svg>
